<?xml version="1.0" encoding="iso-8859-1"?>
<!-- Generator: Adobe Illustrator 19.0.0, SVG Export Plug-In . SVG Version: 6.00 Build 0)  -->
<svg version="1.1" id="Capa_1" xmlns="http://www.w3.org/2000/svg" xmlns:xlink="http://www.w3.org/1999/xlink" x="0px" y="0px"
	 viewBox="0 0 512 512" style="enable-background:new 0 0 512 512;" xml:space="preserve">
<g>
	<path style="fill:#FFD33F;" d="M197.154,50.159L152.242,5.248c-6.994-6.994-18.332-6.994-25.326,0
		c-3.358,3.358-5.248,7.908-5.248,12.663v144.827C122.492,113.627,152.036,69.566,197.154,50.159z"/>
	<path style="fill:#FFD33F;" d="M148.535,314.98l-27.502,27.502c-16.791,16.791-26.23,39.574-26.23,63.324v52.461l0,0
		c-14.839,0-26.866,12.027-26.866,26.866l0,0c0,14.839,12.027,26.866,26.866,26.866l0,0h322.396
		c14.839,0,26.866-12.027,26.866-26.866l0,0l0,0c0-14.839-12.027-26.866-26.866-26.866l0,0v-52.461
		c0-23.75-9.439-46.532-26.23-63.324l-27.502-27.502L148.535,314.98L148.535,314.98z"/>
</g>
<path style="fill:#FFAC3E;" d="M364.889,316.404l-1.424-1.424h-214.93l-1.424,1.424C138.612,497.34,94.802,512,94.802,512h322.396
	C417.198,512,373.388,497.34,364.889,316.404z"/>
<g>
	<path style="fill:#FFD33F;" d="M130.624,332.891c-17.436-23.248-26.866-51.53-26.866-80.599c0-9.896-8.015-17.911-17.911-17.911
		s-17.911,8.015-17.911,17.911v14.329c0.009,36.834,12.457,72.584,35.329,101.456c4.379-9.493,10.397-18.153,17.768-25.568
		L130.624,332.891z"/>
	<path style="fill:#FFD33F;" d="M363.465,512L363.465,512c14.839,0,26.866-12.027,26.866-26.866l0,0l0,0
		c0-14.839-12.027-26.866-26.866-26.866l0,0V234.382h-214.93v223.886l0,0c-14.839,0-26.866,12.027-26.866,26.866l0,0
		c0,14.839,12.027,26.866,26.866,26.866l0,0H363.465z"/>
</g>
<g>
	<path style="fill:#FFAC3E;" d="M193.312,467.223c-10.245,22.066-30.305,37.998-54.118,42.986c2.982,1.155,6.143,1.755,9.341,1.791
		h26.866c19.783,0,35.822-16.039,35.822-35.822V368.713L193.312,467.223z"/>
	<path style="fill:#FFAC3E;" d="M318.688,467.223l-17.911-98.51v107.465c0,19.783,16.039,35.822,35.822,35.822h26.866
		c3.197-0.036,6.358-0.636,9.34-1.791C348.993,505.221,328.933,489.28,318.688,467.223z"/>
	<path style="fill:#FFAC3E;" d="M116.68,309.536c-2.113,18.878-7.782,37.192-16.711,53.965c1.11,1.504,2.131,3.072,3.296,4.549
		c4.379-9.493,10.397-18.153,17.768-25.568l9.591-9.591C125.197,325.593,120.522,317.766,116.68,309.536z"/>
	<path style="fill:#FFAC3E;" d="M243.462,305.533c102.092,0.493,120.003,53.634,120.003,81.091V234.382h-214.93
		C159.819,277.26,199.133,306.724,243.462,305.533z"/>
</g>
<g>
	<path id="SVGCleanerId_0" style="fill:#FFD33F;" d="M359.758,5.248l-44.911,44.911c45.117,19.415,74.653,63.476,75.485,112.579
		V17.911C390.332,8.015,382.307,0,372.421,0C367.665,0,363.116,1.89,359.758,5.248z"/>
</g>
<g>
	<path id="SVGCleanerId_0_1_" style="fill:#FFD33F;" d="M359.758,5.248l-44.911,44.911c45.117,19.415,74.653,63.476,75.485,112.579
		V17.911C390.332,8.015,382.307,0,372.421,0C367.665,0,363.116,1.89,359.758,5.248z"/>
</g>
<ellipse style="fill:#FFD33F;" cx="256" cy="162.72" rx="134.331" ry="125.376"/>
<g>
	<path style="fill:#383856;" d="M256,191.145c-7.129,0.018-13.97-2.821-19.003-7.872c-3.493-3.502-3.493-9.17,0-12.663
		c3.493-3.493,9.17-3.493,12.663,0l0,0c3.537,3.394,9.126,3.394,12.663,0c3.493-3.502,9.17-3.502,12.672-0.009
		c3.502,3.493,3.502,9.17,0,12.672C269.97,188.324,263.129,191.154,256,191.145z"/>
	<path style="fill:#383856;" d="M229.134,144.827c-4.943,0-8.955-4.012-8.955-8.955c0-9.896-8.015-17.911-17.911-17.911
		c-9.896,0-17.911,8.015-17.911,17.911c0,4.943-4.012,8.955-8.955,8.955c-4.943,0-8.955-4.012-8.955-8.955
		c0-19.783,16.039-35.822,35.822-35.822s35.822,16.039,35.822,35.822C238.089,140.815,234.077,144.827,229.134,144.827z"/>
	<path style="fill:#383856;" d="M336.599,144.827c-4.943,0-8.955-4.012-8.955-8.955c0-9.896-8.015-17.911-17.911-17.911
		s-17.911,8.015-17.911,17.911c0,4.943-4.012,8.955-8.955,8.955s-8.955-4.012-8.955-8.955c0-19.783,16.039-35.822,35.822-35.822
		c19.783,0,35.822,16.039,35.822,35.822C345.554,140.815,341.542,144.827,336.599,144.827z"/>
	<path style="fill:#383856;" d="M282.866,82.139c-4.943,0-8.955-4.012-8.955-8.955V46.317c0-4.943,4.012-8.955,8.955-8.955
		c4.943,0,8.955,4.012,8.955,8.955v26.866C291.822,78.127,287.81,82.139,282.866,82.139z"/>
	<path style="fill:#383856;" d="M229.134,82.139c-4.943,0-8.955-4.012-8.955-8.955V46.317c0-4.943,4.012-8.955,8.955-8.955
		c4.943,0,8.955,4.012,8.955,8.955v26.866C238.089,78.127,234.077,82.139,229.134,82.139z"/>
</g>
<path style="fill:#EA3836;" d="M256,189.604c-0.036,15.394-9.923,29.025-24.547,33.834l0.976,2.911
	c4.334,13.021,18.403,20.06,31.416,15.726c7.424-2.472,13.254-8.302,15.726-15.726l0.976-2.911
	C265.923,218.629,256.027,204.99,256,189.604z"/>
<g>
	<path style="fill:#383856;" d="M220.178,234.382c-24.717-0.027-44.75-20.06-44.777-44.777c0-4.943,4.012-8.955,8.955-8.955
		c4.943,0,8.955,4.012,8.955,8.955c0,14.839,12.027,26.866,26.866,26.866c14.839,0,26.866-12.027,26.866-26.866
		c0-4.943,4.012-8.955,8.955-8.955c4.943,0,8.955,4.012,8.955,8.955C264.92,214.321,244.895,234.346,220.178,234.382z"/>
	<path style="fill:#383856;" d="M291.822,234.382c-24.717-0.027-44.75-20.06-44.777-44.777c0-4.943,4.012-8.955,8.955-8.955
		c4.943,0,8.955,4.012,8.955,8.955c0,14.839,12.027,26.866,26.866,26.866c14.839,0,26.866-12.027,26.866-26.866
		c0-4.943,4.012-8.955,8.955-8.955s8.955,4.012,8.955,8.955C336.563,214.321,316.539,234.346,291.822,234.382z"/>
</g>
<g>
	<path id="SVGCleanerId_0_2_" style="fill:#FFD33F;" d="M359.758,5.248l-44.911,44.911c45.117,19.415,74.653,63.476,75.485,112.579
		V17.911C390.332,8.015,382.307,0,372.421,0C367.665,0,363.116,1.89,359.758,5.248z"/>
</g>
<g>
	<path style="fill:#FFD33F;" d="M387.376,136.651c0.215,0.896,0.367,1.881,0.555,2.812
		C387.743,138.558,387.591,137.582,387.376,136.651z"/>
	<path style="fill:#FFD33F;" d="M383.364,123.083c0.394,1.093,0.815,2.176,1.182,3.278
		C384.179,125.26,383.749,124.176,383.364,123.083z"/>
	<path style="fill:#FFD33F;" d="M378.86,112.167c0.636,1.334,1.227,2.687,1.791,4.066
		C380.087,114.862,379.495,113.483,378.86,112.167z"/>
	<path style="fill:#FFD33F;" d="M345.107,69.1c-9.206-7.621-19.38-13.988-30.251-18.932C325.727,55.112,335.9,61.479,345.107,69.1z"
		/>
	<path style="fill:#FFD33F;" d="M368.767,94.748c-1.191-1.702-2.436-3.367-3.699-5.015
		C366.331,91.381,367.576,93.047,368.767,94.748z"/>
	<path style="fill:#FFD33F;" d="M346.065,69.915c6.045,5.096,11.606,10.738,16.621,16.854
		C357.671,80.653,352.11,75.011,346.065,69.915z"/>
	<path style="fill:#FFD33F;" d="M389.337,148.06c0.134,1.075,0.269,2.149,0.376,3.233
		C389.606,150.201,389.436,149.135,389.337,148.06z"/>
	<path style="fill:#FFD33F;" d="M372.421,100.39L372.421,100.39c-0.197-0.322-0.412-0.627-0.609-0.949
		C372.009,99.746,372.224,100.05,372.421,100.39z"/>
	<path style="fill:#FFD33F;" d="M375.645,105.943c-1.03-1.89-2.096-3.743-3.224-5.57l0,0
		C373.549,102.217,374.615,104.062,375.645,105.943z"/>
</g>
<g>
	<path style="fill:#FFAC3E;" d="M349.638,72.942c20.302,22.039,31.622,50.876,31.738,80.841
		c0,69.243-60.145,125.376-134.331,125.376c-34.55,0.197-67.936-12.493-93.638-35.58c26.383,28.657,63.646,44.831,102.593,44.535
		c74.187,0,134.331-56.133,134.331-125.376C390.117,128.385,375.322,95.743,349.638,72.942z"/>
	<path style="fill:#FFAC3E;" d="M349.477,72.96c25.783,22.747,40.64,55.398,40.855,89.778V29.875
		C390.331,53.777,349.477,72.96,349.477,72.96z"/>
	<path style="fill:#FFAC3E;" d="M188.109,41.114c-12.188,23.929-43.434,41.517-66.44,51.771v69.852
		c0.833-49.103,30.368-93.163,75.485-112.579L188.109,41.114z"/>
</g>
<g>
</g>
<g>
</g>
<g>
</g>
<g>
</g>
<g>
</g>
<g>
</g>
<g>
</g>
<g>
</g>
<g>
</g>
<g>
</g>
<g>
</g>
<g>
</g>
<g>
</g>
<g>
</g>
<g>
</g>
</svg>
